<mxfile host="app.diagrams.net" modified="2024-03-13T22:42:32.007Z" agent="Mozilla/5.0 (Macintosh; Intel Mac OS X 10_15_7) AppleWebKit/537.36 (KHTML, like Gecko) Chrome/122.0.0.0 Safari/537.36" version="24.0.5" etag="CrIC_552FVt1onCZhnWl" type="github">
  <diagram name="Page-1" id="M6E7jhoAiEFV12zOn3iM">
    <mxGraphModel>
      <root>
        <mxCell id="0" />
        <mxCell id="1" parent="0" />
      </root>
    </mxGraphModel>
  </diagram>
</mxfile>
